<svg xmlns="http://www.w3.org/2000/svg" viewBox="0 0 24 24" fill="currentColor">
  <path d="M12 .297c-6.63 0-12 5.373-12 12 0 5.303 3.438 9.8 8.205 11.387
  .6.113.82-.258.82-.577 0-.285-.011-1.04-.016-2.04-3.338.724-4.042-1.415
  -4.042-1.415-.546-1.387-1.333-1.757-1.333-1.757-1.089-.745.083-.729.083
  -.729 1.205.084 1.84 1.236 1.84 1.236 1.07 1.834 2.809 1.304 3.495.997
  .108-.775.418-1.305.76-1.605-2.665-.305-5.467-1.334-5.467-5.931 0-1.31
  .469-2.381 1.235-3.221-.135-.303-.54-1.527.105-3.176 0 0 1.005-.322
  3.3 1.23.96-.267 1.98-.399 3-.404 1.02.005 2.04.137 3 .404 2.28-1.553
  3.285-1.23 3.285-1.23.645 1.649.24 2.873.12 3.176.765.84 1.23 1.911
  1.23 3.221 0 4.609-2.807 5.625-5.48 5.921.429.37.81 1.096.81 2.211
  0 1.596-.015 2.884-.015 3.281 0 .319.21.694.825.576C20.565 22.092
  24 17.592 24 12.297c0-6.627-5.373-12-12-12"/>
</svg>
